<svg width="385" height="44" viewBox="0 0 385 44" fill="none" xmlns="http://www.w3.org/2000/svg">
<path d="M76.0714 35L80.6434 12.104H71.7514L72.2194 9.8H92.5954L92.1274 12.104H83.2714L78.6994 35H76.0714ZM90.815 35L94.559 16.1H97.007L95.927 21.68L95.639 20.708C96.479 19.052 97.583 17.84 98.951 17.072C100.343 16.304 102.071 15.92 104.135 15.92L103.667 18.404C103.547 18.404 103.427 18.404 103.307 18.404C103.211 18.38 103.091 18.368 102.947 18.368C100.931 18.368 99.263 18.956 97.943 20.132C96.647 21.284 95.759 23.036 95.279 25.388L93.371 35H90.815ZM113.447 35.18C111.647 35.18 110.075 34.856 108.731 34.208C107.411 33.536 106.391 32.6 105.671 31.4C104.975 30.2 104.627 28.772 104.627 27.116C104.627 24.956 105.083 23.036 105.995 21.356C106.907 19.676 108.155 18.356 109.739 17.396C111.323 16.412 113.111 15.92 115.103 15.92C116.783 15.92 118.235 16.244 119.459 16.892C120.683 17.516 121.631 18.428 122.303 19.628C122.999 20.828 123.347 22.268 123.347 23.948C123.347 24.332 123.323 24.728 123.275 25.136C123.227 25.52 123.167 25.892 123.095 26.252H106.499L106.823 24.344H121.907L120.863 25.064C121.103 23.552 120.995 22.28 120.539 21.248C120.083 20.216 119.375 19.436 118.415 18.908C117.479 18.356 116.351 18.08 115.031 18.08C113.495 18.08 112.127 18.464 110.927 19.232C109.727 19.976 108.791 21.02 108.119 22.364C107.447 23.684 107.111 25.232 107.111 27.008C107.111 28.904 107.651 30.368 108.731 31.4C109.835 32.408 111.479 32.912 113.663 32.912C114.935 32.912 116.111 32.708 117.191 32.3C118.271 31.868 119.159 31.28 119.855 30.536L121.007 32.372C120.119 33.26 119.003 33.956 117.659 34.46C116.339 34.94 114.935 35.18 113.447 35.18ZM139.53 15.92C141.234 15.92 142.626 16.256 143.706 16.928C144.81 17.576 145.566 18.524 145.974 19.772C146.406 21.02 146.442 22.508 146.082 24.236L143.922 35H141.366L143.526 24.2C143.91 22.328 143.706 20.864 142.914 19.808C142.146 18.752 140.778 18.224 138.81 18.224C136.794 18.224 135.114 18.776 133.77 19.88C132.45 20.984 131.562 22.64 131.106 24.848L129.09 35H126.534L130.278 16.1H132.726L131.646 21.536L131.106 20.6C132.018 18.968 133.194 17.78 134.634 17.036C136.098 16.292 137.73 15.92 139.53 15.92ZM156.874 35.18C155.794 35.18 154.87 34.952 154.102 34.496C153.334 34.016 152.794 33.344 152.482 32.48C152.194 31.616 152.17 30.584 152.41 29.384L155.866 11.924H158.422L154.966 29.276C154.726 30.452 154.81 31.364 155.218 32.012C155.65 32.66 156.43 32.984 157.558 32.984C158.086 32.984 158.602 32.912 159.106 32.768C159.61 32.6 160.066 32.348 160.474 32.012L161.086 33.956C160.486 34.412 159.814 34.736 159.07 34.928C158.326 35.096 157.594 35.18 156.874 35.18ZM151.258 18.224L151.654 16.1H163.354L162.922 18.224H151.258ZM173.243 35.18C171.491 35.18 169.967 34.856 168.671 34.208C167.399 33.536 166.403 32.6 165.683 31.4C164.987 30.2 164.639 28.784 164.639 27.152C164.639 24.992 165.107 23.072 166.043 21.392C166.979 19.688 168.275 18.356 169.931 17.396C171.587 16.412 173.471 15.92 175.583 15.92C177.335 15.92 178.847 16.244 180.119 16.892C181.415 17.54 182.411 18.464 183.107 19.664C183.827 20.864 184.187 22.28 184.187 23.912C184.187 26.072 183.719 28.004 182.783 29.708C181.847 31.388 180.551 32.72 178.895 33.704C177.263 34.688 175.379 35.18 173.243 35.18ZM173.423 32.912C175.007 32.912 176.411 32.54 177.635 31.796C178.883 31.028 179.855 29.972 180.551 28.628C181.271 27.284 181.631 25.76 181.631 24.056C181.631 22.184 181.079 20.732 179.975 19.7C178.895 18.668 177.371 18.152 175.403 18.152C173.843 18.152 172.439 18.536 171.191 19.304C169.943 20.072 168.959 21.128 168.239 22.472C167.543 23.792 167.195 25.316 167.195 27.044C167.195 28.892 167.735 30.332 168.815 31.364C169.919 32.396 171.455 32.912 173.423 32.912ZM205.379 35.18C203.579 35.18 202.019 34.856 200.699 34.208C199.403 33.536 198.395 32.6 197.675 31.4C196.979 30.2 196.631 28.784 196.631 27.152C196.631 24.992 197.099 23.072 198.035 21.392C198.971 19.688 200.267 18.356 201.923 17.396C203.603 16.412 205.511 15.92 207.647 15.92C209.399 15.92 210.899 16.244 212.147 16.892C213.419 17.516 214.403 18.452 215.099 19.7L212.939 20.96C212.411 20 211.679 19.292 210.743 18.836C209.831 18.38 208.727 18.152 207.431 18.152C205.847 18.152 204.431 18.536 203.183 19.304C201.935 20.072 200.951 21.128 200.231 22.472C199.535 23.792 199.187 25.316 199.187 27.044C199.187 28.892 199.727 30.332 200.807 31.364C201.911 32.396 203.471 32.912 205.487 32.912C206.711 32.912 207.839 32.684 208.871 32.228C209.927 31.748 210.791 31.064 211.463 30.176L213.299 31.58C212.483 32.708 211.367 33.596 209.951 34.244C208.535 34.868 207.011 35.18 205.379 35.18ZM225.204 35.18C223.452 35.18 221.928 34.856 220.632 34.208C219.36 33.536 218.364 32.6 217.644 31.4C216.948 30.2 216.6 28.784 216.6 27.152C216.6 24.992 217.068 23.072 218.004 21.392C218.94 19.688 220.236 18.356 221.892 17.396C223.548 16.412 225.432 15.92 227.544 15.92C229.296 15.92 230.808 16.244 232.08 16.892C233.376 17.54 234.372 18.464 235.068 19.664C235.788 20.864 236.148 22.28 236.148 23.912C236.148 26.072 235.68 28.004 234.744 29.708C233.808 31.388 232.512 32.72 230.856 33.704C229.224 34.688 227.34 35.18 225.204 35.18ZM225.384 32.912C226.968 32.912 228.372 32.54 229.596 31.796C230.844 31.028 231.816 29.972 232.512 28.628C233.232 27.284 233.592 25.76 233.592 24.056C233.592 22.184 233.04 20.732 231.936 19.7C230.856 18.668 229.332 18.152 227.364 18.152C225.804 18.152 224.4 18.536 223.152 19.304C221.904 20.072 220.92 21.128 220.2 22.472C219.504 23.792 219.156 25.316 219.156 27.044C219.156 28.892 219.696 30.332 220.776 31.364C221.88 32.396 223.416 32.912 225.384 32.912ZM247.918 35.18C246.118 35.18 244.558 34.856 243.238 34.208C241.942 33.536 240.934 32.6 240.214 31.4C239.518 30.2 239.17 28.784 239.17 27.152C239.17 24.992 239.638 23.072 240.574 21.392C241.51 19.688 242.806 18.356 244.462 17.396C246.142 16.412 248.05 15.92 250.186 15.92C251.938 15.92 253.438 16.244 254.686 16.892C255.958 17.516 256.942 18.452 257.638 19.7L255.478 20.96C254.95 20 254.218 19.292 253.282 18.836C252.37 18.38 251.266 18.152 249.97 18.152C248.386 18.152 246.97 18.536 245.722 19.304C244.474 20.072 243.49 21.128 242.77 22.472C242.074 23.792 241.726 25.316 241.726 27.044C241.726 28.892 242.266 30.332 243.346 31.364C244.45 32.396 246.01 32.912 248.026 32.912C249.25 32.912 250.378 32.684 251.41 32.228C252.466 31.748 253.33 31.064 254.002 30.176L255.838 31.58C255.022 32.708 253.906 33.596 252.49 34.244C251.074 34.868 249.55 35.18 247.918 35.18ZM259.354 35L263.098 16.1H265.654L261.91 35H259.354ZM265.474 11.924C264.97 11.924 264.55 11.756 264.214 11.42C263.902 11.084 263.746 10.688 263.746 10.232C263.746 9.704 263.926 9.248 264.286 8.864C264.67 8.48 265.15 8.288 265.726 8.288C266.23 8.288 266.65 8.444 266.986 8.756C267.322 9.068 267.49 9.464 267.49 9.944C267.49 10.52 267.298 11 266.914 11.384C266.53 11.744 266.05 11.924 265.474 11.924ZM282.018 15.92C283.722 15.92 285.114 16.256 286.194 16.928C287.298 17.576 288.054 18.524 288.462 19.772C288.894 21.02 288.93 22.508 288.57 24.236L286.41 35H283.854L286.014 24.2C286.398 22.328 286.194 20.864 285.402 19.808C284.634 18.752 283.266 18.224 281.298 18.224C279.282 18.224 277.602 18.776 276.258 19.88C274.938 20.984 274.05 22.64 273.594 24.848L271.578 35H269.022L272.766 16.1H275.214L274.134 21.536L273.594 20.6C274.506 18.968 275.682 17.78 277.122 17.036C278.586 16.292 280.218 15.92 282.018 15.92ZM301.414 35.18C299.806 35.18 298.378 34.856 297.13 34.208C295.882 33.56 294.91 32.636 294.214 31.436C293.518 30.236 293.17 28.808 293.17 27.152C293.17 25.544 293.434 24.056 293.962 22.688C294.49 21.32 295.234 20.132 296.194 19.124C297.154 18.092 298.282 17.3 299.578 16.748C300.898 16.196 302.326 15.92 303.862 15.92C305.518 15.92 306.922 16.22 308.074 16.82C309.226 17.396 310.114 18.248 310.738 19.376C311.362 20.48 311.674 21.824 311.674 23.408C311.674 25.688 311.254 27.716 310.414 29.492C309.574 31.268 308.386 32.66 306.85 33.668C305.314 34.676 303.502 35.18 301.414 35.18ZM301.954 32.912C303.538 32.912 304.942 32.54 306.166 31.796C307.414 31.028 308.386 29.972 309.082 28.628C309.802 27.284 310.162 25.76 310.162 24.056C310.162 22.184 309.61 20.732 308.506 19.7C307.426 18.668 305.902 18.152 303.934 18.152C302.374 18.152 300.97 18.536 299.722 19.304C298.474 20.072 297.49 21.128 296.77 22.472C296.074 23.792 295.726 25.316 295.726 27.044C295.726 28.892 296.266 30.332 297.346 31.364C298.45 32.396 299.986 32.912 301.954 32.912ZM308.182 35L309.262 29.564L310.342 25.748L310.702 21.788L311.854 16.1H314.41L310.63 35H308.182Z" fill="#41D9D9"/>
<mask id="mask0_1_10" style="mask-type:alpha" maskUnits="userSpaceOnUse" x="22" y="6" width="42" height="32">
<rect x="22" y="6" width="42" height="32" fill="#D9D9D9"/>
</mask>
<g mask="url(#mask0_1_10)">
<path d="M29.6563 34L27.2063 32.1333L45.1438 18.4667C44.6188 17.5333 44.5458 16.4778 44.925 15.3C45.3042 14.1222 46.1354 13.0667 47.4188 12.1333C48.9646 10.9556 50.6854 10.2667 52.5813 10.0667C54.4771 9.86667 56.0229 10.2222 57.2188 11.1333C58.4146 12.0444 58.8813 13.2222 58.6188 14.6667C58.3563 16.1111 57.4521 17.4222 55.9063 18.6C54.6813 19.5778 53.2958 20.2111 51.75 20.5C50.2042 20.7889 48.8188 20.7333 47.5938 20.3333L45.4063 22L58.7063 32.1333L56.2563 34L42.9563 23.9333L29.6563 34ZM34.8188 22.6L29.5688 18.6C27.9938 17.4 27.2063 15.9667 27.2063 14.3C27.2063 12.6333 27.9938 11.2 29.5688 10L40.4188 18.3333L34.8188 22.6Z" fill="#41D9D9"/>
</g>
</svg>
