<svg id="visual" viewBox="0 0 900 600" width="900" height="600" xmlns="http://www.w3.org/2000/svg" xmlns:xlink="http://www.w3.org/1999/xlink" version="1.1"><rect x="0" y="0" width="900" height="600" fill="#5fcdd9"></rect><path d="M0 305L15 301.2C30 297.3 60 289.7 90 286.2C120 282.7 150 283.3 180 283C210 282.7 240 281.3 270 281.2C300 281 330 282 360 296C390 310 420 337 450 343.2C480 349.3 510 334.7 540 323C570 311.3 600 302.7 630 306.5C660 310.3 690 326.7 720 322.2C750 317.7 780 292.3 810 285.5C840 278.7 870 290.3 885 296.2L900 302L900 601L885 601C870 601 840 601 810 601C780 601 750 601 720 601C690 601 660 601 630 601C600 601 570 601 540 601C510 601 480 601 450 601C420 601 390 601 360 601C330 601 300 601 270 601C240 601 210 601 180 601C150 601 120 601 90 601C60 601 30 601 15 601L0 601Z" fill="#04bfad"></path><path d="M0 334L15 337.8C30 341.7 60 349.3 90 358.7C120 368 150 379 180 377.8C210 376.7 240 363.3 270 366.8C300 370.3 330 390.7 360 401.7C390 412.7 420 414.3 450 405.2C480 396 510 376 540 360.7C570 345.3 600 334.7 630 342.5C660 350.3 690 376.7 720 390.3C750 404 780 405 810 392C840 379 870 352 885 338.5L900 325L900 601L885 601C870 601 840 601 810 601C780 601 750 601 720 601C690 601 660 601 630 601C600 601 570 601 540 601C510 601 480 601 450 601C420 601 390 601 360 601C330 601 300 601 270 601C240 601 210 601 180 601C150 601 120 601 90 601C60 601 30 601 15 601L0 601Z" fill="#18c6b8"></path><path d="M0 449L15 442.8C30 436.7 60 424.3 90 427.2C120 430 150 448 180 454.7C210 461.3 240 456.7 270 454C300 451.3 330 450.7 360 443.7C390 436.7 420 423.3 450 421.2C480 419 510 428 540 427.3C570 426.7 600 416.3 630 417.3C660 418.3 690 430.7 720 439C750 447.3 780 451.7 810 444.8C840 438 870 420 885 411L900 402L900 601L885 601C870 601 840 601 810 601C780 601 750 601 720 601C690 601 660 601 630 601C600 601 570 601 540 601C510 601 480 601 450 601C420 601 390 601 360 601C330 601 300 601 270 601C240 601 210 601 180 601C150 601 120 601 90 601C60 601 30 601 15 601L0 601Z" fill="#27ccc3"></path><path d="M0 491L15 489C30 487 60 483 90 477.3C120 471.7 150 464.3 180 461.8C210 459.3 240 461.7 270 460.2C300 458.7 330 453.3 360 453.3C390 453.3 420 458.7 450 458.7C480 458.7 510 453.3 540 458C570 462.7 600 477.3 630 485.2C660 493 690 494 720 487.5C750 481 780 467 810 458.7C840 450.3 870 447.7 885 446.3L900 445L900 601L885 601C870 601 840 601 810 601C780 601 750 601 720 601C690 601 660 601 630 601C600 601 570 601 540 601C510 601 480 601 450 601C420 601 390 601 360 601C330 601 300 601 270 601C240 601 210 601 180 601C150 601 120 601 90 601C60 601 30 601 15 601L0 601Z" fill="#34d3ce"></path><path d="M0 515L15 517.2C30 519.3 60 523.7 90 527C120 530.3 150 532.7 180 537.3C210 542 240 549 270 549.8C300 550.7 330 545.3 360 540.7C390 536 420 532 450 534.3C480 536.7 510 545.3 540 543.7C570 542 600 530 630 528.2C660 526.3 690 534.7 720 533.8C750 533 780 523 810 516C840 509 870 505 885 503L900 501L900 601L885 601C870 601 840 601 810 601C780 601 750 601 720 601C690 601 660 601 630 601C600 601 570 601 540 601C510 601 480 601 450 601C420 601 390 601 360 601C330 601 300 601 270 601C240 601 210 601 180 601C150 601 120 601 90 601C60 601 30 601 15 601L0 601Z" fill="#41d9d9"></path></svg>