<svg width="301" height="76" viewBox="0 0 301 76" fill="none" xmlns="http://www.w3.org/2000/svg">
<path d="M2.16 19.416V15.864H26.544V19.416H15.984V51H12.432V19.416H2.16ZM30.63 51V25.512H33.126L34.182 28.728C34.342 28.632 34.742 28.392 35.382 28.008C36.054 27.624 36.486 27.384 36.678 27.288C36.902 27.16 37.302 26.952 37.878 26.664C38.454 26.376 38.902 26.184 39.222 26.088C39.574 25.96 40.006 25.816 40.518 25.656C41.062 25.496 41.59 25.384 42.102 25.32C42.614 25.256 43.142 25.224 43.686 25.224C45.542 25.224 46.726 25.352 47.238 25.608V29.112C46.47 28.92 45.286 28.824 43.686 28.824C42.47 28.824 41.302 28.952 40.182 29.208C39.094 29.464 38.214 29.736 37.542 30.024C36.902 30.312 35.782 30.84 34.182 31.608V51H30.63ZM50.5875 38.136C50.5875 35.32 50.7795 33.064 51.1635 31.368C51.5475 29.64 52.2355 28.344 53.2275 27.48C54.2515 26.584 55.3715 26.008 56.5875 25.752C57.8355 25.464 59.5475 25.32 61.7235 25.32C63.4835 25.32 64.8595 25.4 65.8515 25.56C66.8435 25.72 67.8195 26.088 68.7795 26.664C69.7395 27.24 70.4275 28.152 70.8435 29.4C71.2595 30.648 71.4675 32.296 71.4675 34.344C71.4675 38.248 69.2755 40.2 64.8915 40.2H54.1395C54.1395 43.176 54.4755 45.176 55.1475 46.2C55.8195 47.192 57.0995 47.688 58.9875 47.688C59.2115 47.688 59.5475 47.688 59.9955 47.688C60.4435 47.688 60.7795 47.688 61.0035 47.688C65.4835 47.688 68.8115 47.528 70.9875 47.208V49.896C67.8195 50.792 63.8195 51.24 58.9875 51.24C55.7555 51.24 53.5475 50.312 52.3635 48.456C51.1795 46.6 50.5875 43.16 50.5875 38.136ZM54.1395 36.696H64.8915C66.9075 36.696 67.9155 35.912 67.9155 34.344C67.9155 31.88 67.5475 30.36 66.8115 29.784C66.1075 29.176 64.4275 28.872 61.7715 28.872C60.6515 28.872 59.8195 28.888 59.2755 28.92C58.7635 28.952 58.1395 29.048 57.4035 29.208C56.6995 29.336 56.1875 29.56 55.8675 29.88C55.5795 30.2 55.2595 30.648 54.9075 31.224C54.5875 31.8 54.3795 32.536 54.2835 33.432C54.1875 34.328 54.1395 35.416 54.1395 36.696ZM76.2863 51V25.512H78.7823L79.8383 28.488C79.9343 28.456 80.2863 28.264 80.8943 27.912C81.5023 27.528 81.8703 27.304 81.9983 27.24C82.1583 27.176 82.5103 27 83.0543 26.712C83.5983 26.392 83.9823 26.2 84.2063 26.136C84.4303 26.072 84.7983 25.944 85.3103 25.752C85.8223 25.56 86.2383 25.432 86.5583 25.368C86.9103 25.304 87.3263 25.24 87.8063 25.176C88.2863 25.112 88.7663 25.08 89.2463 25.08C91.6783 25.08 93.5983 25.88 95.0063 27.48C96.4143 29.08 97.1183 31 97.1183 33.24V51H93.5663V33.24C93.5663 31.736 93.1663 30.6 92.3663 29.832C91.5663 29.032 90.5263 28.632 89.2463 28.632C88.0303 28.632 86.8783 28.76 85.7903 29.016C84.7023 29.272 83.8223 29.544 83.1503 29.832C82.5103 30.088 81.4063 30.6 79.8383 31.368V51H76.2863ZM100.476 29.016V26.328L105.228 25.464L106.092 18.36H108.78V25.464H116.22V29.016H108.78V41.88C108.78 43.832 109.004 45.192 109.452 45.96C109.9 46.696 110.588 47.176 111.516 47.4C114.14 48.072 115.564 48.408 115.788 48.408V50.952H111.564C107.34 50.952 105.228 47.928 105.228 41.88V29.016H100.476ZM120.056 38.616C120.056 33.464 120.872 29.96 122.504 28.104C124.136 26.216 127.064 25.272 131.288 25.272C135.576 25.272 138.52 26.232 140.12 28.152C141.72 30.04 142.52 33.528 142.52 38.616C142.52 43.384 141.72 46.68 140.12 48.504C138.52 50.328 135.576 51.24 131.288 51.24C127.064 51.24 124.136 50.296 122.504 48.408C120.872 46.52 120.056 43.256 120.056 38.616ZM123.608 38.616C123.608 40.696 123.752 42.36 124.04 43.608C124.36 44.856 124.888 45.768 125.624 46.344C126.392 46.92 127.16 47.288 127.928 47.448C128.728 47.608 129.848 47.688 131.288 47.688C132.76 47.688 133.896 47.608 134.696 47.448C135.528 47.288 136.296 46.92 137 46.344C137.736 45.736 138.248 44.824 138.536 43.608C138.824 42.36 138.968 40.696 138.968 38.616C138.968 36.344 138.84 34.552 138.584 33.24C138.36 31.928 137.896 30.952 137.192 30.312C136.488 29.64 135.72 29.224 134.888 29.064C134.088 28.904 132.888 28.824 131.288 28.824C130.072 28.824 129.112 28.872 128.408 28.968C127.704 29.064 127 29.288 126.296 29.64C125.592 29.992 125.064 30.52 124.712 31.224C124.392 31.928 124.12 32.888 123.896 34.104C123.704 35.288 123.608 36.792 123.608 38.616ZM163.187 33.336C163.187 27.256 164.003 22.76 165.635 19.848C167.299 16.936 170.387 15.48 174.899 15.48C178.387 15.48 182.291 15.88 186.611 16.68V19.512H186.179C185.891 19.48 185.507 19.448 185.027 19.416C184.547 19.384 183.987 19.352 183.347 19.32C182.739 19.288 182.067 19.256 181.331 19.224C180.595 19.192 179.859 19.16 179.123 19.128C178.419 19.096 177.683 19.08 176.915 19.08C176.179 19.048 175.507 19.032 174.899 19.032C172.819 19.032 171.203 19.432 170.051 20.232C168.931 21 168.099 22.424 167.555 24.504C167.011 26.552 166.739 29.528 166.739 33.432C166.739 42.968 169.459 47.736 174.899 47.736L186.611 47.4V50.232C182.835 50.936 178.931 51.288 174.899 51.288C167.091 51.288 163.187 45.304 163.187 33.336ZM190.697 38.616C190.697 33.464 191.513 29.96 193.145 28.104C194.777 26.216 197.705 25.272 201.929 25.272C206.217 25.272 209.161 26.232 210.761 28.152C212.361 30.04 213.161 33.528 213.161 38.616C213.161 43.384 212.361 46.68 210.761 48.504C209.161 50.328 206.217 51.24 201.929 51.24C197.705 51.24 194.777 50.296 193.145 48.408C191.513 46.52 190.697 43.256 190.697 38.616ZM194.249 38.616C194.249 40.696 194.393 42.36 194.681 43.608C195.001 44.856 195.529 45.768 196.265 46.344C197.033 46.92 197.801 47.288 198.569 47.448C199.369 47.608 200.489 47.688 201.929 47.688C203.401 47.688 204.537 47.608 205.337 47.448C206.169 47.288 206.937 46.92 207.641 46.344C208.377 45.736 208.889 44.824 209.177 43.608C209.465 42.36 209.609 40.696 209.609 38.616C209.609 36.344 209.481 34.552 209.225 33.24C209.001 31.928 208.537 30.952 207.833 30.312C207.129 29.64 206.361 29.224 205.529 29.064C204.729 28.904 203.529 28.824 201.929 28.824C200.713 28.824 199.753 28.872 199.049 28.968C198.345 29.064 197.641 29.288 196.937 29.64C196.233 29.992 195.705 30.52 195.353 31.224C195.033 31.928 194.761 32.888 194.537 34.104C194.345 35.288 194.249 36.792 194.249 38.616ZM217.978 38.232C217.978 35.544 218.17 33.32 218.554 31.56C218.97 29.768 219.578 28.44 220.378 27.576C221.178 26.68 222.042 26.072 222.97 25.752C223.898 25.432 225.034 25.272 226.378 25.272C229.194 25.272 232.842 25.688 237.322 26.52V29.112C232.874 28.92 229.226 28.824 226.378 28.824C225.514 28.824 224.842 28.904 224.362 29.064C223.882 29.224 223.386 29.608 222.874 30.216C222.394 30.792 222.042 31.752 221.818 33.096C221.626 34.44 221.53 36.216 221.53 38.424C221.53 42.008 221.882 44.456 222.586 45.768C223.322 47.048 224.586 47.688 226.378 47.688C227.69 47.688 229.274 47.656 231.13 47.592C233.018 47.496 234.586 47.4 235.834 47.304L237.658 47.16V49.848C234.586 50.712 230.826 51.176 226.378 51.24C225.066 51.24 223.946 51.08 223.018 50.76C222.122 50.44 221.258 49.848 220.426 48.984C219.626 48.088 219.018 46.744 218.602 44.952C218.186 43.16 217.978 40.92 217.978 38.232ZM241.978 21.384V18.792C241.978 17.992 242.362 17.592 243.13 17.592H245.53C246.266 17.592 246.634 17.992 246.634 18.792V21.384C246.634 22.12 246.266 22.488 245.53 22.488H243.13C242.362 22.488 241.978 22.12 241.978 21.384ZM242.458 51V25.512H246.01V51H242.458ZM251.927 51V25.512H254.423L255.479 28.488C255.575 28.456 255.927 28.264 256.535 27.912C257.143 27.528 257.511 27.304 257.639 27.24C257.799 27.176 258.151 27 258.695 26.712C259.239 26.392 259.623 26.2 259.847 26.136C260.071 26.072 260.439 25.944 260.951 25.752C261.463 25.56 261.879 25.432 262.199 25.368C262.551 25.304 262.967 25.24 263.447 25.176C263.927 25.112 264.407 25.08 264.887 25.08C267.319 25.08 269.239 25.88 270.647 27.48C272.055 29.08 272.759 31 272.759 33.24V51H269.207V33.24C269.207 31.736 268.807 30.6 268.007 29.832C267.207 29.032 266.167 28.632 264.887 28.632C263.671 28.632 262.519 28.76 261.431 29.016C260.343 29.272 259.463 29.544 258.791 29.832C258.151 30.088 257.047 30.6 255.479 31.368V51H251.927ZM277.076 44.952V42.024C277.076 40.072 277.636 38.52 278.756 37.368C279.908 36.216 281.476 35.64 283.46 35.64C286.628 35.64 289.252 35.64 291.332 35.64C292.196 35.64 292.868 35.64 293.348 35.64C293.86 35.64 294.116 35.64 294.116 35.64C294.116 34.712 294.116 33.928 294.116 33.288C294.116 33.16 294.116 33.048 294.116 32.952C294.116 32.856 294.116 32.776 294.116 32.712C294.116 32.616 294.116 32.552 294.116 32.52C294.116 32.456 294.116 32.424 294.116 32.424C294.116 29.8 292.804 28.488 290.18 28.488C287.3 28.488 283.204 28.68 277.892 29.064V26.472C281.124 25.576 285.268 25.096 290.324 25.032C290.356 25.032 290.404 25.032 290.468 25.032C292.58 25.032 294.308 25.656 295.652 26.904C296.996 28.12 297.668 29.96 297.668 32.424V51H295.028L294.116 47.928L293.396 48.264C292.948 48.488 292.34 48.776 291.572 49.128C290.804 49.448 289.972 49.784 289.076 50.136C288.18 50.456 287.22 50.728 286.196 50.952C285.172 51.176 284.26 51.288 283.46 51.288C281.636 51.288 280.116 50.728 278.9 49.608C277.684 48.488 277.076 46.936 277.076 44.952ZM280.628 44.712C280.628 46.728 281.572 47.736 283.46 47.736C284.612 47.736 286.068 47.528 287.828 47.112C289.62 46.696 291.124 46.296 292.34 45.912L294.116 45.288V38.424L283.46 39.192C282.5 39.288 281.78 39.624 281.3 40.2C280.852 40.776 280.628 41.48 280.628 42.312V44.712Z" fill="#5FCDD9"/>
</svg>
